<?xml version="1.0" encoding="UTF-8"?>
<!DOCTYPE svg PUBLIC "-//W3C//DTD SVG 1.1//EN" "http://www.w3.org/Graphics/SVG/1.1/DTD/svg11.dtd">
<svg xmlns="http://www.w3.org/2000/svg" version="1.1" width="64px" height="64px" style="shape-rendering:geometricPrecision; text-rendering:geometricPrecision; image-rendering:optimizeQuality; fill-rule:evenodd; clip-rule:evenodd" xmlns:xlink="http://www.w3.org/1999/xlink">
<g><path style="opacity:1" fill="#a6601f" d="M 21.5,1.5 C 21.5,3.16667 21.5,4.83333 21.5,6.5C 19.901,6.23219 18.5676,6.56552 17.5,7.5C 16.5,7.5 15.5,7.5 14.5,7.5C 14.5,5.5 14.5,3.5 14.5,1.5C 16.8333,1.5 19.1667,1.5 21.5,1.5 Z"/></g>
<g><path style="opacity:0.995" fill="#bf6d0f" d="M 21.5,1.5 C 30.5,1.5 39.5,1.5 48.5,1.5C 48.5,3.5 48.5,5.5 48.5,7.5C 47.5,7.5 46.5,7.5 45.5,7.5C 37.6841,6.50761 29.6841,6.17428 21.5,6.5C 21.5,4.83333 21.5,3.16667 21.5,1.5 Z"/></g>
<g><path style="opacity:1" fill="#fdd49a" d="M 21.5,6.5 C 29.6841,6.17428 37.6841,6.50761 45.5,7.5C 38.5,7.5 31.5,7.5 24.5,7.5C 24.3531,12.2142 24.6864,16.8809 25.5,21.5C 21.8046,20.8738 20.9712,21.8738 23,24.5C 25.0253,26.6931 27.5253,27.6931 30.5,27.5C 30.5,30.1667 30.5,32.8333 30.5,35.5C 26.8243,38.1941 24.8243,41.8608 24.5,46.5C 24.5,46.8333 24.5,47.1667 24.5,47.5C 21.1078,48.99 19.7745,51.6566 20.5,55.5C 19.5,55.5 18.5,55.5 17.5,55.5C 17.161,50.0698 17.661,44.7364 19,39.5C 21.4018,36.7214 23.9018,34.0547 26.5,31.5C 23.9018,28.9453 21.4018,26.2786 19,23.5C 17.661,18.2636 17.161,12.9302 17.5,7.5C 18.5676,6.56552 19.901,6.23219 21.5,6.5 Z"/></g>
<g><path style="opacity:0.984" fill="#ffe8cb" d="M 45.5,7.5 C 45.6657,11.8461 45.499,16.1794 45,20.5C 44.7996,22.3197 43.9663,23.653 42.5,24.5C 42.6716,23.5084 42.3382,22.8417 41.5,22.5C 36.3595,21.5119 31.0262,21.1786 25.5,21.5C 24.6864,16.8809 24.3531,12.2142 24.5,7.5C 31.5,7.5 38.5,7.5 45.5,7.5 Z"/></g>
<g><path style="opacity:0.962" fill="#fee8ca" d="M 41.5,22.5 C 42.3382,22.8417 42.6716,23.5084 42.5,24.5C 40.6161,26.8143 38.6161,29.1477 36.5,31.5C 39.0982,34.0547 41.5982,36.7214 44,39.5C 45.339,44.7364 45.839,50.0698 45.5,55.5C 44.791,56.404 43.791,56.7373 42.5,56.5C 42.5,56.1667 42.5,55.8333 42.5,55.5C 42.0974,49.7596 39.0974,46.0929 33.5,44.5C 32.5046,38.8722 32.1712,33.2055 32.5,27.5C 36.2207,27.1089 39.2207,25.4422 41.5,22.5 Z"/></g>
<g><path style="opacity:1" fill="#f6b834" d="M 25.5,21.5 C 31.0262,21.1786 36.3595,21.5119 41.5,22.5C 39.2207,25.4422 36.2207,27.1089 32.5,27.5C 32.1712,33.2055 32.5046,38.8722 33.5,44.5C 39.0974,46.0929 42.0974,49.7596 42.5,55.5C 38.1539,55.6657 33.8206,55.499 29.5,55C 30.3366,53.9887 30.67,52.8221 30.5,51.5C 29.1667,51.5 27.8333,51.5 26.5,51.5C 26.762,52.9778 26.4287,54.3112 25.5,55.5C 24.52,52.9135 24.1866,50.2469 24.5,47.5C 24.5,47.1667 24.5,46.8333 24.5,46.5C 26.2972,45.2702 28.2972,44.6036 30.5,44.5C 30.5,41.5 30.5,38.5 30.5,35.5C 30.5,32.8333 30.5,30.1667 30.5,27.5C 27.5253,27.6931 25.0253,26.6931 23,24.5C 20.9712,21.8738 21.8046,20.8738 25.5,21.5 Z"/></g>
<g><path style="opacity:1" fill="#ffe7c9" d="M 30.5,35.5 C 30.5,38.5 30.5,41.5 30.5,44.5C 28.2972,44.6036 26.2972,45.2702 24.5,46.5C 24.8243,41.8608 26.8243,38.1941 30.5,35.5 Z"/></g>
<g><path style="opacity:1" fill="#e2a02d" d="M 24.5,47.5 C 24.1866,50.2469 24.52,52.9135 25.5,55.5C 26.4287,54.3112 26.762,52.9778 26.5,51.5C 27.8333,51.5 29.1667,51.5 30.5,51.5C 30.67,52.8221 30.3366,53.9887 29.5,55C 33.8206,55.499 38.1539,55.6657 42.5,55.5C 42.5,55.8333 42.5,56.1667 42.5,56.5C 35.5,56.5 28.5,56.5 21.5,56.5C 19.901,56.7678 18.5676,56.4345 17.5,55.5C 18.5,55.5 19.5,55.5 20.5,55.5C 19.7745,51.6566 21.1078,48.99 24.5,47.5 Z"/></g>
<g><path style="opacity:1" fill="#a66020" d="M 17.5,55.5 C 18.5676,56.4345 19.901,56.7678 21.5,56.5C 21.5,58.1667 21.5,59.8333 21.5,61.5C 19.1667,61.5 16.8333,61.5 14.5,61.5C 14.5,59.5 14.5,57.5 14.5,55.5C 15.5,55.5 16.5,55.5 17.5,55.5 Z"/></g>
<g><path style="opacity:0.995" fill="#bf6d0f" d="M 45.5,55.5 C 46.5,55.5 47.5,55.5 48.5,55.5C 48.5,57.5 48.5,59.5 48.5,61.5C 39.5,61.5 30.5,61.5 21.5,61.5C 21.5,59.8333 21.5,58.1667 21.5,56.5C 28.5,56.5 35.5,56.5 42.5,56.5C 43.791,56.7373 44.791,56.404 45.5,55.5 Z"/></g>
</svg>
