<?xml version="1.0" encoding="UTF-8"?>
<!DOCTYPE svg PUBLIC "-//W3C//DTD SVG 1.1//EN" "http://www.w3.org/Graphics/SVG/1.1/DTD/svg11.dtd">
<svg xmlns="http://www.w3.org/2000/svg" version="1.1" width="48px" height="48px" style="shape-rendering:geometricPrecision; text-rendering:geometricPrecision; image-rendering:optimizeQuality; fill-rule:evenodd; clip-rule:evenodd" xmlns:xlink="http://www.w3.org/1999/xlink">
<g><path style="opacity:0.955" fill="#3ded2f" d="M 37.5,8.5 C 28.1667,8.5 18.8333,8.5 9.5,8.5C 13.2833,4.61868 17.95,2.95202 23.5,3.5C 29.05,2.95202 33.7167,4.61868 37.5,8.5 Z"/></g>
<g><path style="opacity:0.981" fill="#36e92b" d="M 9.5,8.5 C 18.8333,8.5 28.1667,8.5 37.5,8.5C 38.5,8.83333 39.1667,9.5 39.5,10.5C 28.8333,11.8333 18.1667,11.8333 7.5,10.5C 7.83333,9.5 8.5,8.83333 9.5,8.5 Z"/></g>
<g><path style="opacity:0.977" fill="#32e527" d="M 7.5,10.5 C 18.1667,11.8333 28.8333,11.8333 39.5,10.5C 40.1667,11.5 40.8333,12.5 41.5,13.5C 35.9252,14.4524 30.2586,14.7857 24.5,14.5C 18.6008,13.7951 12.6008,13.1284 6.5,12.5C 6.83333,11.8333 7.16667,11.1667 7.5,10.5 Z"/></g>
<g><path style="opacity:0.969" fill="#34e029" d="M 6.5,12.5 C 12.6008,13.1284 18.6008,13.7951 24.5,14.5C 21.2327,16.4273 18.2327,18.7606 15.5,21.5C 15.1667,21.5 14.8333,21.5 14.5,21.5C 10.8333,21.5 7.16667,21.5 3.5,21.5C 3.1324,17.9557 4.1324,14.9557 6.5,12.5 Z"/></g>
<g><path style="opacity:1" fill="#fdfefd" d="M 24.5,14.5 C 26.1667,16.8333 28.1667,18.8333 30.5,20.5C 30.6107,21.1174 30.944,21.6174 31.5,22C 29.8659,22.4935 28.1992,22.6602 26.5,22.5C 26.5,25.8333 26.5,29.1667 26.5,32.5C 24.5,32.5 22.5,32.5 20.5,32.5C 20.5,29.1667 20.5,25.8333 20.5,22.5C 18.5853,22.7845 16.9187,22.4511 15.5,21.5C 18.2327,18.7606 21.2327,16.4273 24.5,14.5 Z"/></g>
<g><path style="opacity:0.975" fill="#2cde22" d="M 41.5,13.5 C 43.181,16.582 43.8476,19.9153 43.5,23.5C 39.8333,23.5 36.1667,23.5 32.5,23.5C 32.7148,21.8212 32.0481,20.8212 30.5,20.5C 28.1667,18.8333 26.1667,16.8333 24.5,14.5C 30.2586,14.7857 35.9252,14.4524 41.5,13.5 Z"/></g>
<g><path style="opacity:0.99" fill="#1ed716" d="M 3.5,21.5 C 7.16667,21.5 10.8333,21.5 14.5,21.5C 15.5521,23.256 17.2188,23.9227 19.5,23.5C 19.5,25.1667 19.5,26.8333 19.5,28.5C 14.0557,27.8917 9.05572,28.5583 4.5,30.5C 3.52333,27.7131 3.19,24.7131 3.5,21.5 Z"/></g>
<g><path style="opacity:0.978" fill="#1bd513" d="M 32.5,23.5 C 36.1667,23.5 39.8333,23.5 43.5,23.5C 43.8476,27.0847 43.181,30.418 41.5,33.5C 36.8333,33.5 32.1667,33.5 27.5,33.5C 27.5,30.1667 27.5,26.8333 27.5,23.5C 29.1667,23.5 30.8333,23.5 32.5,23.5 Z"/></g>
<g><path style="opacity:0.989" fill="#16d10f" d="M 19.5,28.5 C 19.5,30.1667 19.5,31.8333 19.5,33.5C 14.9677,33.1818 10.6344,33.5151 6.5,34.5C 5.32627,33.4863 4.6596,32.153 4.5,30.5C 9.05572,28.5583 14.0557,27.8917 19.5,28.5 Z"/></g>
<g><path style="opacity:0.98" fill="#12ca0c" d="M 30.5,20.5 C 32.0481,20.8212 32.7148,21.8212 32.5,23.5C 30.8333,23.5 29.1667,23.5 27.5,23.5C 27.5,26.8333 27.5,30.1667 27.5,33.5C 32.1667,33.5 36.8333,33.5 41.5,33.5C 40.396,35.3885 39.0627,37.0552 37.5,38.5C 28.1667,38.5 18.8333,38.5 9.5,38.5C 8.02561,37.5637 7.02561,36.2303 6.5,34.5C 10.6344,33.5151 14.9677,33.1818 19.5,33.5C 19.5,31.8333 19.5,30.1667 19.5,28.5C 19.5,26.8333 19.5,25.1667 19.5,23.5C 17.2188,23.9227 15.5521,23.256 14.5,21.5C 14.8333,21.5 15.1667,21.5 15.5,21.5C 16.9187,22.4511 18.5853,22.7845 20.5,22.5C 20.5,25.8333 20.5,29.1667 20.5,32.5C 22.5,32.5 24.5,32.5 26.5,32.5C 26.5,29.1667 26.5,25.8333 26.5,22.5C 28.1992,22.6602 29.8659,22.4935 31.5,22C 30.944,21.6174 30.6107,21.1174 30.5,20.5 Z"/></g>
<g><path style="opacity:0.968" fill="#07c803" d="M 9.5,38.5 C 18.8333,38.5 28.1667,38.5 37.5,38.5C 33.7167,42.3813 29.05,44.048 23.5,43.5C 17.95,44.048 13.2833,42.3813 9.5,38.5 Z"/></g>
</svg>
