<?xml version="1.0" encoding="UTF-8"?>
<!DOCTYPE svg PUBLIC "-//W3C//DTD SVG 1.1//EN" "http://www.w3.org/Graphics/SVG/1.1/DTD/svg11.dtd">
<svg xmlns="http://www.w3.org/2000/svg" version="1.1" width="64px" height="64px" style="shape-rendering:geometricPrecision; text-rendering:geometricPrecision; image-rendering:optimizeQuality; fill-rule:evenodd; clip-rule:evenodd" xmlns:xlink="http://www.w3.org/1999/xlink">
<g><path style="opacity:0.92" fill="#ed5900" d="M 30.5,1.5 C 36.8467,8.33532 44.0134,14.3353 52,19.5C 60.1092,32.5739 58.9426,44.7405 48.5,56C 38.5703,62.4948 28.237,63.1615 17.5,58C 5.49278,48.4683 2.65944,36.635 9,22.5C 11.9456,17.5551 16.1122,14.0551 21.5,12C 24.863,8.74804 27.863,5.24804 30.5,1.5 Z M 30.5,4.5 C 32.4304,5.76347 34.0971,7.43014 35.5,9.5C 32.5541,10.6548 29.5541,10.8214 26.5,10C 28.4641,8.54905 29.7974,6.71572 30.5,4.5 Z"/></g>
</svg>
