<?xml version="1.0" encoding="UTF-8"?>
<!DOCTYPE svg PUBLIC "-//W3C//DTD SVG 1.1//EN" "http://www.w3.org/Graphics/SVG/1.1/DTD/svg11.dtd">
<svg xmlns="http://www.w3.org/2000/svg" version="1.1" width="64px" height="64px" style="shape-rendering:geometricPrecision; text-rendering:geometricPrecision; image-rendering:optimizeQuality; fill-rule:evenodd; clip-rule:evenodd" xmlns:xlink="http://www.w3.org/1999/xlink">
<g><path style="opacity:0.822" fill="#b55617" d="M 23.5,-0.5 C 28.8333,-0.5 34.1667,-0.5 39.5,-0.5C 51.8333,3.16667 59.8333,11.1667 63.5,23.5C 63.5,28.8333 63.5,34.1667 63.5,39.5C 59.8333,51.8333 51.8333,59.8333 39.5,63.5C 34.1667,63.5 28.8333,63.5 23.5,63.5C 11.1667,59.8333 3.16667,51.8333 -0.5,39.5C -0.5,34.1667 -0.5,28.8333 -0.5,23.5C 3.16667,11.1667 11.1667,3.16667 23.5,-0.5 Z"/></g>
<g><path style="opacity:1" fill="#f7d393" d="M 56.5,15.5 C 56.6716,16.4916 56.3382,17.1583 55.5,17.5C 43.9473,1.86402 29.9473,-0.635977 13.5,10C 2.01592,21.6316 0.515915,34.465 9,48.5C 11.3959,51.0666 13.8959,53.4 16.5,55.5C 15.8333,55.5 15.1667,55.5 14.5,55.5C 5.88843,49.7851 1.5551,41.6184 1.5,31C 4.27749,9.939 16.2775,0.272332 37.5,2C 45.6882,4.04055 52.0215,8.54055 56.5,15.5 Z"/></g>
<g><path style="opacity:1" fill="#b85c1c" d="M 55.5,17.5 C 62.545,31.3518 60.2116,43.5185 48.5,54C 38.0862,60.7023 27.4195,61.2023 16.5,55.5C 13.8959,53.4 11.3959,51.0666 9,48.5C 0.515915,34.465 2.01592,21.6316 13.5,10C 29.9473,-0.635977 43.9473,1.86402 55.5,17.5 Z"/></g>
<g><path style="opacity:1" fill="#fe8838" d="M 51.5,15.5 C 56.5138,34.3087 49.8471,46.8087 31.5,53C 26.0167,53.8501 20.6834,53.3501 15.5,51.5C 15.0934,50.2382 14.76,48.9049 14.5,47.5C 12.694,48.8587 11.194,48.5254 10,46.5C 7.5936,42.1145 6.0936,37.4478 5.5,32.5C 9.5,31.8333 9.5,31.1667 5.5,30.5C 5.66745,24.1698 8.00078,18.8365 12.5,14.5C 15.1667,15.8333 15.8333,15.1667 14.5,12.5C 18.8365,8.00078 24.1698,5.66745 30.5,5.5C 31.1667,9.5 31.8333,9.5 32.5,5.5C 38.7562,5.9119 44.0895,8.24524 48.5,12.5C 48.1667,13.1667 47.8333,13.8333 47.5,14.5C 48.9049,14.76 50.2382,15.0934 51.5,15.5 Z"/></g>
<g><path style="opacity:1" fill="#b85918" d="M 30.5,11.5 C 32.7012,11.8584 34.0345,13.1917 34.5,15.5C 32.4765,19.5683 31.9765,23.9016 33,28.5C 33.8897,33.0575 36.5564,36.0575 41,37.5C 41.49,38.7932 41.6567,40.1266 41.5,41.5C 40.1266,41.6567 38.7932,41.49 37.5,41C 36.2212,36.7203 33.3878,34.2203 29,33.5C 29.8471,30.1968 30.3471,26.6968 30.5,23C 30.6953,20.2073 30.0287,17.7073 28.5,15.5C 29.1799,14.1401 29.8466,12.8068 30.5,11.5 Z"/></g>
<g><path style="opacity:1" fill="#e86308" d="M 51.5,15.5 C 55.4043,19.6551 57.4043,24.6551 57.5,30.5C 53.5,31.1667 53.5,31.8333 57.5,32.5C 57.0881,38.7562 54.7548,44.0895 50.5,48.5C 47.8333,47.1667 47.1667,47.8333 48.5,50.5C 44.062,54.7614 38.7286,57.0947 32.5,57.5C 31.8333,53.5 31.1667,53.5 30.5,57.5C 24.6551,57.4043 19.6551,55.4043 15.5,51.5C 20.6834,53.3501 26.0167,53.8501 31.5,53C 49.8471,46.8087 56.5138,34.3087 51.5,15.5 Z"/></g>
<g><path style="opacity:1" fill="#ed9a04" d="M 30.5,30.5 C 32.337,30.6395 32.6704,31.3061 31.5,32.5C 30.7025,32.0431 30.3691,31.3764 30.5,30.5 Z"/></g>
<g><path style="opacity:1" fill="#f7bc54" d="M 56.5,15.5 C 64.6158,30.0532 62.6158,43.2199 50.5,55C 41.6611,61.4241 31.9944,63.0908 21.5,60C 18.7613,58.9741 16.428,57.4741 14.5,55.5C 15.1667,55.5 15.8333,55.5 16.5,55.5C 27.4195,61.2023 38.0862,60.7023 48.5,54C 60.2116,43.5185 62.545,31.3518 55.5,17.5C 56.3382,17.1583 56.6716,16.4916 56.5,15.5 Z"/></g>
</svg>
